<svg id="a" xmlns="http://www.w3.org/2000/svg" viewBox="12.72 0 259.72 40.49"><defs><style>.b{fill:#043266}</style></defs><path class="b" d="M77.9 11.88v6.37h-7.23v-6.37h-3.98V28.6h3.98v-6.72h7.23v6.72h3.98V11.88H77.9zM96.47 11.88 92.3 18.5l-4.16-6.62h-4.69l6.87 10.93v5.79h3.98v-5.79l6.87-10.93h-4.7zM113.98 11.88v12.26c0 .47-.35.84-.85.84h-6.38v-13.1h-3.98V28.6h11.76c1.05 0 1.89-.31 2.5-.92.61-.61.92-1.45.92-2.49V11.88h-3.97ZM133.41 11.88h-11.77V28.6h3.98V15.5H132c.51 0 .84.4.84.84V28.6h3.98V15.3c0-1.05-.31-1.89-.92-2.5-.62-.62-1.46-.92-2.5-.92M152.28 11.88h-11.76v16.73h11.76c1.05 0 1.88-.31 2.49-.92.61-.61.92-1.45.92-2.49v-9.9c0-1.05-.31-1.89-.92-2.5-.61-.61-1.45-.92-2.49-.92m-.56 4.49v7.75c0 .45-.33.86-.85.86h-6.38V15.5h6.35c.52 0 .88.37.88.87M162.63 11.88c-1.04 0-1.89.31-2.5.92-.62.61-.92 1.45-.92 2.5v13.3h3.97v-5.17h7.23v5.17h3.97V11.88h-11.76Zm7.78 3.62v4.31h-7.23v-3.46c0-.41.32-.85.85-.85h6.38ZM178.26 11.88h3.98V28.6h-3.98zM35.58 31.89c12.56 0 22.75-5.21 22.75-11.65S48.14 8.59 35.58 8.59s-22.75 5.22-22.75 11.65 10.19 11.65 22.75 11.65m4.28-5.72c-.38.88-1.03 2.76-2.53 3.51-.45.22-1.01.33-1.52.35h-.23c-4.2 0-8.11-.58-11.38-1.58-.03 0-.1-.04-.13-.05-.3-.1-.46-.24-.46-.41 0-.15.08-.26.19-.37.04-.05.12-.1.21-.18.76-.63 3.03-2.28 7.32-3.92 1.5-.57 3.38-1.29 5.35-1.7 1.15-.24 5.44-.9 3.18 4.36m11.49-11.74c.08-.14.19-.26.38-.27.11 0 .25.02.47.16 2.67 1.64 4.25 3.7 4.25 5.92 0 4.02-5.17 7.47-12.55 8.98-.47.09-.79.09-.9-.03-.07-.07-.09-.2 0-.36.05-.08.1-.16.2-.27 4.02-4.74 7.09-11.73 7.96-13.75.07-.14.13-.28.18-.37m-19.99-.15c.38-.88 1.03-2.76 2.53-3.5.46-.23 1.02-.33 1.52-.35h.23c4.2 0 8.11.58 11.38 1.58.02 0 .1.04.12.05.3.1.46.24.46.41 0 .15-.08.26-.19.37-.05.04-.12.1-.21.18-.75.63-3.03 2.28-7.32 3.92-1.5.58-3.38 1.29-5.35 1.71-1.16.24-5.44.9-3.18-4.36m-4.13-3.02c.47-.09.79-.09.9.03.07.08.09.2 0 .36-.05.09-.1.16-.2.27-4.02 4.74-7.09 11.74-7.96 13.76-.06.14-.13.28-.18.37-.08.14-.19.26-.38.27-.11 0-.25-.02-.47-.15-2.67-1.65-4.26-3.7-4.26-5.92 0-4.02 5.17-7.47 12.55-8.98M223.49 11.82h2.53l6.68 16.84h-2.36l-1.61-4.06h-7.99l-1.58 4.06h-2.37l6.7-16.84Zm-1.95 10.75h6.41l-3.19-8.17-3.22 8.17ZM234.98 11.82h10.77v2.03h-8.53v14.81h-2.24V11.82ZM250.87 11.82h2.53l6.68 16.84h-2.36l-1.61-4.06h-7.99l-1.58 4.06h-2.37l6.7-16.84Zm-1.95 10.75h6.41l-3.19-8.17-3.22 8.17ZM264.4 13.85h-5.24v-2.03h12.72v2.03h-5.24v14.81h-2.24V13.85ZM199.15 9.42h.73v21.82h-.73z"/></svg>